<svg width="15" height="15" viewBox="0 0 15 15" fill="none" xmlns="http://www.w3.org/2000/svg">
<g clip-path="url(#clip0)">
<path d="M7.5 15C11.6421 15 15 11.6421 15 7.5C15 3.35786 11.6421 0 7.5 0C3.35786 0 0 3.35786 0 7.5C0 11.6421 3.35786 15 7.5 15Z" fill="#FFD93B"/>
<path d="M12.2165 9.90151C11.4421 11.7442 9.62244 13.0388 7.49947 13.0388C5.37604 13.0388 3.56104 11.7442 2.78666 9.90151C2.62822 9.53026 2.90901 9.12292 3.31635 9.14542C6.10026 9.32214 8.88932 9.32214 11.6821 9.14542C12.0895 9.12292 12.3703 9.53026 12.2165 9.90151Z" fill="#3E4347"/>
<path d="M15 7.4999C15 11.6437 11.6414 14.9999 7.50002 14.9999C5.14221 14.9999 3.03752 13.9124 1.66174 12.2085C2.94846 13.2491 4.58674 13.8702 6.37034 13.8702C10.5117 13.8702 13.8703 10.514 13.8703 6.37021C13.8703 4.58662 13.2492 2.94834 12.2086 1.66162C13.9102 3.0374 15 5.14209 15 7.4999Z" fill="#F4C534"/>
<path d="M4.40819 8.16103C5.9123 8.16103 7.13163 6.94066 7.13163 5.43525C7.13163 3.92985 5.9123 2.70947 4.40819 2.70947C2.90408 2.70947 1.68475 3.92985 1.68475 5.43525C1.68475 6.94066 2.90408 8.16103 4.40819 8.16103Z" fill="white"/>
<path d="M6.35817 5.2624C6.35817 6.02647 5.73942 6.64522 4.97535 6.64053C4.21598 6.64053 3.59723 6.02647 3.59723 5.2624C3.59723 4.50303 4.21598 3.88428 4.98004 3.88428C5.73942 3.88475 6.35817 4.50303 6.35817 5.2624Z" fill="#3E4347"/>
<path d="M5.77215 5.00042C5.6784 5.09885 5.48152 5.05198 5.33621 4.90198C5.1909 4.75667 5.14403 4.56448 5.23778 4.46605C5.33621 4.3723 5.5284 4.41917 5.67371 4.56448C5.82371 4.7098 5.87058 4.90667 5.77215 5.00042Z" fill="white"/>
<path d="M10.5919 8.16103C12.096 8.16103 13.3153 6.94066 13.3153 5.43525C13.3153 3.92985 12.096 2.70947 10.5919 2.70947C9.08779 2.70947 7.86847 3.92985 7.86847 5.43525C7.86847 6.94066 9.08779 8.16103 10.5919 8.16103Z" fill="white"/>
<path d="M8.50696 5.2624C8.50696 6.02647 9.12571 6.64522 9.88977 6.64053C10.6491 6.64053 11.2679 6.02647 11.2679 5.2624C11.2679 4.50303 10.6491 3.88428 9.88508 3.88428C9.12571 3.88475 8.50696 4.50303 8.50696 5.2624Z" fill="#3E4347"/>
<path d="M9.0928 5.00042C9.18655 5.09885 9.38343 5.05198 9.52875 4.90198C9.67406 4.75667 9.72094 4.56448 9.62719 4.46605C9.52875 4.3723 9.33656 4.41917 9.19124 4.56448C9.04124 4.7098 8.99436 4.90667 9.0928 5.00042Z" fill="white"/>
<path d="M3.3159 9.14542C3.28309 9.14354 3.25262 9.1487 3.22168 9.15245C4.09215 10.3309 5.6798 10.396 7.49996 10.396C9.32012 10.396 10.9078 10.3309 11.7782 9.15245C11.7464 9.1487 11.7154 9.14354 11.6821 9.14542C8.88887 9.32214 6.10027 9.32214 3.3159 9.14542Z" fill="white"/>
<path d="M7.499 13.0387C8.27853 13.0387 9.01681 12.8629 9.67775 12.5507C9.64541 12.0065 9.42509 11.5129 9.06228 11.1454C8.77212 10.8562 8.33009 10.7479 7.94525 10.8895C7.59509 11.0151 7.21353 11.0798 6.80056 11.084C6.09837 11.084 5.48478 11.5987 5.35775 12.2873C5.34181 12.3745 5.33806 12.4654 5.33337 12.5563C5.99056 12.8643 6.72369 13.0387 7.499 13.0387Z" fill="#E24B4B"/>
</g>
<defs>
<clipPath id="clip0">
<rect width="15" height="15" fill="white"/>
</clipPath>
</defs>
</svg>
