<svg width="15" height="15" viewBox="0 0 15 15" fill="none" xmlns="http://www.w3.org/2000/svg">
<g clip-path="url(#clip0)">
<path d="M7.5 15C11.6421 15 15 11.6421 15 7.5C15 3.35786 11.6421 0 7.5 0C3.35786 0 0 3.35786 0 7.5C0 11.6421 3.35786 15 7.5 15Z" fill="#FFD93B"/>
<path d="M15 7.4999C15 11.6437 11.6414 14.9999 7.50002 14.9999C5.14221 14.9999 3.03752 13.9124 1.66174 12.2085C2.94846 13.2491 4.58674 13.8702 6.37034 13.8702C10.5117 13.8702 13.8703 10.514 13.8703 6.37021C13.8703 4.58662 13.2492 2.94834 12.2086 1.66162C13.9102 3.0374 15 5.14209 15 7.4999Z" fill="#F4C534"/>
<path d="M6.77165 7.76385C5.8543 6.98902 3.78524 7.25433 3.2143 8.23495C2.85852 7.32276 3.57946 6.08996 4.6979 5.94043C5.96634 5.77355 6.8279 6.82636 6.77165 7.76385Z" fill="#3E4347"/>
<path d="M8.22855 7.76385C9.14589 6.98902 11.215 7.25433 11.7859 8.23495C12.1417 7.32276 11.4207 6.08996 10.3023 5.94043C9.03386 5.77355 8.1723 6.82636 8.22855 7.76385Z" fill="#3E4347"/>
<path d="M12.6061 9.52997C11.82 11.9539 9.6886 13.7778 7.50235 13.7857C5.31188 13.7778 3.18048 11.9515 2.39438 9.52997C2.29923 9.22528 2.6836 8.94216 3.05579 9.05278C6.15141 9.98747 8.85423 9.98325 11.9499 9.05278C12.3169 8.94309 12.7013 9.22294 12.6061 9.52997Z" fill="#3E4347"/>
<path d="M10.6562 10.6137C10.7209 10.1942 10.7851 9.76859 10.8489 9.34766C8.58948 9.88062 6.49886 9.88625 4.24371 9.36781C4.31496 9.78265 4.38668 10.197 4.45793 10.6109C4.4809 10.7412 4.6084 10.8326 4.76449 10.8598C6.62824 11.1805 8.48308 11.1786 10.3478 10.8678C10.5067 10.8416 10.6356 10.7492 10.6562 10.6137Z" fill="white"/>
<path d="M7.16433 11.5355C7.43902 11.6405 7.75542 11.6072 8.02448 11.49C8.60104 11.2397 9.3412 11.3292 9.50432 12.1135C9.50573 12.1191 9.50667 12.1252 9.50807 12.1327C9.65901 12.9905 8.86542 13.755 7.9312 13.7841C7.89042 13.7878 7.84917 13.7855 7.80792 13.7859C7.57026 13.7874 7.33777 13.7625 7.10902 13.7236C6.65245 13.6406 6.24558 13.3641 6.03558 12.9802C5.91324 12.7561 5.82511 12.5067 5.79277 12.2358C5.69246 11.4314 6.41855 11.2505 7.16433 11.5355Z" fill="#E24B4B"/>
<path opacity="0.2" d="M9.05953 12.1539C8.99765 12.2289 8.91375 12.2397 8.82468 12.1619C8.78765 12.1328 8.75672 12.0972 8.73422 12.0569C8.68969 11.9786 8.60859 11.9223 8.51297 11.8961C8.47078 11.8834 8.43328 11.8576 8.41922 11.8084C8.40797 11.7667 8.4375 11.7067 8.52328 11.6598C8.88797 11.4639 9.27562 11.8773 9.05953 12.1539Z" fill="white"/>
<path d="M11.6818 4.33693C11.3912 3.72099 10.1111 2.25943 8.9209 2.92458C9.90996 1.43349 11.4836 2.10146 11.6818 4.33693Z" fill="#3E4347"/>
<path d="M3.31836 4.33693C3.60899 3.72099 4.88914 2.25943 6.0793 2.92458C5.09024 1.43349 3.51664 2.10146 3.31836 4.33693Z" fill="#3E4347"/>
<path d="M14.5365 12.0267C14.3893 11.5148 12.9394 9.95947 12.9394 9.95947C12.9394 9.95947 12.5349 12.0463 12.6821 12.5587C12.8293 13.0706 13.3632 13.3668 13.8755 13.2196C14.3879 13.0724 14.6837 12.539 14.5365 12.0267Z" fill="#65B1EF"/>
<path d="M0.46372 12.0267C0.610439 11.5148 2.06075 9.95947 2.06075 9.95947C2.06075 9.95947 2.46528 12.0463 2.31809 12.5587C2.17138 13.0706 1.637 13.3668 1.12466 13.2196C0.612782 13.0729 0.316532 12.539 0.46372 12.0267Z" fill="#65B1EF"/>
</g>
<defs>
<clipPath id="clip0">
<rect width="15" height="15" fill="white"/>
</clipPath>
</defs>
</svg>
