<svg width="15" height="15" viewBox="0 0 15 15" fill="none" xmlns="http://www.w3.org/2000/svg">
<g clip-path="url(#clip0)">
<path d="M7.5 15C11.6421 15 15 11.6421 15 7.5C15 3.35786 11.6421 0 7.5 0C3.35786 0 0 3.35786 0 7.5C0 11.6421 3.35786 15 7.5 15Z" fill="#FFD93B"/>
<path d="M7.49995 12.4382C5.48526 12.4382 3.71479 11.1473 3.09463 9.22585C3.0351 9.04116 3.13635 8.84288 3.32104 8.78335C3.50667 8.72335 3.70401 8.82507 3.76354 9.00976C4.28995 10.6396 5.79135 11.7351 7.49995 11.7351C9.20854 11.7351 10.7099 10.6401 11.2364 9.00976C11.2959 8.82507 11.4932 8.72335 11.6789 8.78335C11.8635 8.84288 11.9648 9.04116 11.9053 9.22585C11.2851 11.1473 9.51463 12.4382 7.49995 12.4382Z" fill="#3E4347"/>
<path d="M15 7.4999C15 11.6437 11.6414 14.9999 7.50002 14.9999C5.14221 14.9999 3.03752 13.9124 1.66174 12.2085C2.94846 13.2491 4.58674 13.8702 6.37034 13.8702C10.5117 13.8702 13.8703 10.514 13.8703 6.37021C13.8703 4.58662 13.2492 2.94834 12.2086 1.66162C13.9102 3.0374 15 5.14209 15 7.4999Z" fill="#F4C534"/>
<path d="M6.25324 6.27473C5.90074 5.79379 5.26512 5.4741 4.54043 5.4741C3.81246 5.47738 3.17684 5.79707 2.82434 6.27801C2.84075 5.34566 3.602 4.59473 4.54043 4.59473C5.4723 4.59473 6.23683 5.34238 6.25324 6.27473Z" fill="#3E4347"/>
<path d="M12.1763 6.27473C11.8238 5.79379 11.1882 5.4741 10.4635 5.4741C9.73556 5.47738 9.09994 5.79707 8.74744 6.27801C8.76384 5.34566 9.52509 4.59473 10.4635 4.59473C11.3959 4.59473 12.1599 5.34238 12.1763 6.27473Z" fill="#3E4347"/>
</g>
<defs>
<clipPath id="clip0">
<rect width="15" height="15" fill="white"/>
</clipPath>
</defs>
</svg>
