<svg width="15" height="15" viewBox="0 0 15 15" fill="none" xmlns="http://www.w3.org/2000/svg">
<path d="M7.5 15C11.6421 15 15 11.6421 15 7.5C15 3.35786 11.6421 0 7.5 0C3.35786 0 0 3.35786 0 7.5C0 11.6421 3.35786 15 7.5 15Z" fill="#FFD93B"/>
<path d="M7.50011 12.3208C5.30683 12.3208 3.39574 10.8354 2.85292 8.7091C2.81027 8.54176 2.91105 8.3716 3.07839 8.32894C3.2448 8.28535 3.41542 8.38707 3.45808 8.55441C3.93058 10.4041 5.5923 11.696 7.49964 11.696C9.40698 11.696 11.0692 10.4041 11.5412 8.55441C11.5834 8.38707 11.7535 8.28535 11.9214 8.32894C12.0887 8.3716 12.1895 8.54176 12.1468 8.7091C11.6045 10.8354 9.69339 12.3208 7.50011 12.3208Z" fill="#3E4347"/>
<path d="M15 7.4999C15 11.6437 11.6414 14.9999 7.49996 14.9999C5.14215 14.9999 3.03746 13.9124 1.66168 12.2085C2.9484 13.2491 4.58668 13.8702 6.37028 13.8702C10.5117 13.8702 13.8703 10.514 13.8703 6.37022C13.8703 4.58662 13.2492 2.94834 12.2086 1.66162C13.9101 3.0374 15 5.14209 15 7.4999Z" fill="#F4C534"/>
<path d="M5.07803 7.82025C5.71281 7.82025 6.2274 7.2087 6.2274 6.45432C6.2274 5.69993 5.71281 5.08838 5.07803 5.08838C4.44324 5.08838 3.92865 5.69993 3.92865 6.45432C3.92865 7.2087 4.44324 7.82025 5.07803 7.82025Z" fill="#3E4347"/>
<path d="M5.59634 6.16051C5.50681 6.23083 5.35962 6.19614 5.26541 6.08176C5.17119 5.96739 5.1665 5.81411 5.25603 5.7438C5.34509 5.6702 5.49275 5.70489 5.5865 5.81927C5.68119 5.93692 5.68213 6.08739 5.59634 6.16051Z" fill="#5A5F63"/>
<path d="M9.92342 7.82025C10.5582 7.82025 11.0728 7.2087 11.0728 6.45432C11.0728 5.69993 10.5582 5.08838 9.92342 5.08838C9.28864 5.08838 8.77405 5.69993 8.77405 6.45432C8.77405 7.2087 9.28864 7.82025 9.92342 7.82025Z" fill="#3E4347"/>
<path d="M10.4409 6.16051C10.3514 6.23083 10.2042 6.19614 10.11 6.08176C10.0158 5.96739 10.0111 5.81411 10.1006 5.7438C10.1897 5.6702 10.3369 5.70489 10.4311 5.81927C10.5258 5.93692 10.5267 6.08739 10.4409 6.16051Z" fill="#5A5F63"/>
</svg>
