<svg xmlns="http://www.w3.org/2000/svg"><symbol id="sprite-ar-next" viewBox="0 0 12 8"><path d="M11.354 3.646a.5.5 0 0 1 0 .708L8.172 7.536a.5.5 0 1 1-.708-.708L10.293 4 7.464 1.172a.5.5 0 1 1 .708-.708l3.182 3.182zM0 3.5h11v1H0v-1z"/></symbol><symbol id="sprite-ar-prev" viewBox="0 0 12 8"><path d="M.646 3.646a.5.5 0 0 0 0 .708l3.182 3.182a.5.5 0 1 0 .708-.708L1.707 4l2.829-2.828a.5.5 0 1 0-.708-.708L.646 3.646zM12 3.5H1v1h11v-1z"/></symbol><symbol id="sprite-books" viewBox="0 0 30 30"><path d="M25.977 15.879h3.144a.879.879 0 0 0 .634-1.487l-.013-.014c-1.596-1.531-1.596-4.286 0-5.817l.013-.013a.88.88 0 0 0-.634-1.488h-3.144c-1.37-1.559-1.266-4.117.235-5.56a.88.88 0 0 0-.621-1.5H3.085A3.089 3.089 0 0 0 0 3.085v2.648a3.089 3.089 0 0 0 3.085 3.085h.746c-.193.403-.3.853-.3 1.328v2.648c0 .475.107.925.3 1.327h-.746A3.089 3.089 0 0 0 0 17.206v2.648a3.089 3.089 0 0 0 3.085 3.085h.746c-.193.403-.3.853-.3 1.328v2.648A3.089 3.089 0 0 0 6.615 30H29.12a.879.879 0 0 0 .634-1.487l-.013-.014c-1.596-1.53-1.596-4.285 0-5.816a.88.88 0 0 0-.62-1.5h-3.145c-1.285-1.464-1.285-3.842 0-5.304zM1.757 5.733V3.085c0-.732.596-1.327 1.328-1.327H23.88c-.836 1.609-.836 3.694 0 5.303H3.085a1.329 1.329 0 0 1-1.327-1.328zm8.827 3.085h1.772v1.713l-.515-.24a.88.88 0 0 0-.743 0l-.515.24V8.818zm-5.296 3.976v-2.648a1.33 1.33 0 0 1 1.328-1.328h2.21v3.093a.879.879 0 0 0 1.25.796l1.394-.65 1.393.65a.88.88 0 0 0 1.25-.796V8.818H27.41c-.836 1.61-.836 3.694 0 5.303H6.616a1.33 1.33 0 0 1-1.328-1.327zm12.356 3.085h1.773v1.713l-.515-.24a.88.88 0 0 0-.743 0l-.515.24v-1.713zm9.765 12.363H6.616a1.329 1.329 0 0 1-1.328-1.327v-2.648a1.33 1.33 0 0 1 1.328-1.328h20.793c-.836 1.61-.836 3.694 0 5.303zm-24.324-7.06a1.329 1.329 0 0 1-1.327-1.328v-2.648a1.33 1.33 0 0 1 1.327-1.327h12.801v3.092a.879.879 0 0 0 1.25.797l1.394-.65 1.394.65a.88.88 0 0 0 1.25-.797V15.88h2.705c-.836 1.609-.836 3.694 0 5.303H3.085z"/></symbol><symbol id="sprite-check" viewBox="0 0 45 31"><path d="M.732 11.772a2.5 2.5 0 0 1 3.536 0L18.37 25.875a2.5 2.5 0 1 1-3.536 3.535L.732 15.308a2.5 2.5 0 0 1 0-3.536z"/><path d="M44.258.732a2.5 2.5 0 0 0-3.535 0l-24.99 24.99a2.5 2.5 0 1 0 3.535 3.536l24.99-24.99a2.5 2.5 0 0 0 0-3.536z"/></symbol><symbol id="sprite-clndr" viewBox="0 0 15 15"><path d="M13.393 1.607h-1.607V.536a.536.536 0 1 0-1.072 0v1.071H4.286V.536a.536.536 0 1 0-1.072 0v1.071H1.607C.72 1.607 0 2.327 0 3.214v10.179C0 14.28.72 15 1.607 15h11.786C14.28 15 15 14.28 15 13.393V3.214c0-.887-.72-1.607-1.607-1.607zm.536 11.786c0 .296-.24.536-.536.536H1.607a.536.536 0 0 1-.536-.536V6.429H13.93v6.964zm0-8.036H1.07V3.214c0-.296.24-.535.536-.535h1.607V3.75a.536.536 0 0 0 1.072 0V2.679h6.428V3.75a.536.536 0 1 0 1.072 0V2.679h1.607c.296 0 .536.24.536.535v2.143z"/><path d="M4.286 7.5H3.214a.536.536 0 0 0 0 1.071h1.072a.536.536 0 1 0 0-1.071zm3.75 0H6.964a.536.536 0 0 0 0 1.071h1.072a.536.536 0 1 0 0-1.071zm3.75 0h-1.072a.536.536 0 1 0 0 1.071h1.072a.536.536 0 1 0 0-1.071zm-7.5 2.143H3.214a.536.536 0 1 0 0 1.071h1.072a.536.536 0 1 0 0-1.071zm3.75 0H6.964a.536.536 0 1 0 0 1.071h1.072a.536.536 0 1 0 0-1.071zm3.75 0h-1.072a.536.536 0 1 0 0 1.071h1.072a.536.536 0 1 0 0-1.071zm-7.5 2.143H3.214a.536.536 0 0 0 0 1.071h1.072a.536.536 0 0 0 0-1.071zm3.75 0H6.964a.536.536 0 0 0 0 1.071h1.072a.536.536 0 0 0 0-1.071zm3.75 0h-1.072a.536.536 0 0 0 0 1.071h1.072a.536.536 0 1 0 0-1.071z"/></symbol><symbol id="sprite-clock" viewBox="0 0 15 15"><path d="M7.5 0C3.365 0 0 3.365 0 7.5S3.365 15 7.5 15 15 11.635 15 7.5 11.635 0 7.5 0zm0 14.063A6.57 6.57 0 0 1 .938 7.5 6.57 6.57 0 0 1 7.5.938 6.57 6.57 0 0 1 14.063 7.5 6.57 6.57 0 0 1 7.5 14.063z"/><path d="M7.969 2.813H7.03v4.881l2.95 2.95.663-.663-2.675-2.675V2.812z"/></symbol><symbol id="sprite-close" viewBox="0 0 20 20"><path d="M.882.882a1.248 1.248 0 0 1 1.765 0l16.47 16.47a1.248 1.248 0 0 1-1.765 1.765L.882 2.647a1.248 1.248 0 0 1 0-1.765z"/><path d="M19.117.882a1.248 1.248 0 0 0-1.764 0L.883 17.352a1.248 1.248 0 0 0 1.764 1.765l16.47-16.47a1.248 1.248 0 0 0 0-1.765z"/></symbol><symbol id="sprite-dnd" viewBox="0 0 18 18"><path d="M18 0h-1.406v.563h.843v1.125H18V0zm-2.813 0h-1.406v.563h1.406V0zm-2.812 0h-1.406v.563h1.406V0zM9.562 0H8.156v.563h1.406V0zM6.75 0H5.344v.563H6.75V0zM3.937 0H2.532v.563h1.406V0zM1.126 0H0v.563h1.125V0zM.562 1.688H0v1.406h.563V1.688zm0 2.812H0v1.406h.563V4.5zm0 2.813H0v1.406h.563V7.313zm0 2.812H0v1.406h.563v-1.406zm0 2.813H0v1.406h.563v-1.406zm0 2.812H0v1.406h.563V15.75zm1.407 1.688H.562V18H1.97v-.563zm2.812 0H3.375V18h1.406v-.563zm2.813 0H6.187V18h1.407v-.563zm2.812 0H9V18h1.406v-.563zm2.813 0h-1.406V18h1.406v-.563zm2.812 0h-1.406V18h1.406v-.563zM18 17.155h-.563V18H18v-.844zm0-2.812h-.563v1.406H18v-1.406zm0-2.813h-.563v1.406H18V11.53zm0-2.812h-.563v1.406H18V8.719zm0-2.813h-.563v1.407H18V5.905zm0-2.812h-.563V4.5H18V3.094zM9.422 6.187h-.844v5.627h.844V6.187z"/><path d="M11.814 8.578H6.187v.844h5.627v-.844z"/></symbol><symbol id="sprite-edu" viewBox="0 0 40 40"><path d="M37.5 15.82v-4.938c0-.535-.274-1.016-.734-1.29L21.136.313a2.222 2.222 0 0 0-2.271 0L3.234 9.592c-.46.274-.734.755-.734 1.29 0 .534.274 1.015.734 1.288l4.38 2.601v4.53c0 .85.454 1.648 1.185 2.082l9.965 5.917a2.419 2.419 0 0 0 2.472 0l9.965-5.917a2.43 2.43 0 0 0 1.184-2.081v-4.53l3.552-2.11v3.159a2.347 2.347 0 0 0-1.562 2.209v5.742c0 .432.35.781.781.781h3.125a.78.78 0 0 0 .781-.78V18.03a2.347 2.347 0 0 0-1.562-2.21zm-18.281 9.932L9.597 20.04a.861.861 0 0 1-.42-.737V15.7l9.688 5.752c.114.068.232.123.354.169v4.132zm11.604-6.45c0 .3-.16.583-.42.737l-9.622 5.713V21.62c.122-.046.24-.101.354-.169l9.688-5.752v3.603zm-10.486.806a.66.66 0 0 1-.674 0l-15.54-9.226 15.54-9.227a.66.66 0 0 1 .674 0l15.54 9.227-15.54 9.226zM37.5 22.99h-1.563v-4.96a.782.782 0 0 1 1.563 0v4.96z"/><path d="M20 8.378c-1.676 0-3.04 1.215-3.04 2.708s1.364 2.708 3.04 2.708 3.04-1.215 3.04-2.708S21.675 8.378 20 8.378zm0 3.853c-.8 0-1.477-.524-1.477-1.145S19.2 9.94 20 9.94s1.477.525 1.477 1.146c0 .62-.677 1.145-1.477 1.145zm13.989 16.792H17.422a.781.781 0 0 0 0 1.563H20a4.454 4.454 0 0 1 4.449 4.449 3.407 3.407 0 0 1-3.403 3.403H7.74a4.946 4.946 0 0 0 1.354-3.403 5.997 5.997 0 0 0-1.973-4.45h3.374a.781.781 0 1 0 0-1.562H3.083a4.454 4.454 0 0 1 4.449 6.011 3.407 3.407 0 0 1-3.403 3.404 2.569 2.569 0 0 1-2.566-2.566c0-1.046.85-1.897 1.896-1.897.75 0 1.361.61 1.361 1.36a.781.781 0 1 0 1.563 0 2.927 2.927 0 0 0-2.924-2.922A3.463 3.463 0 0 0 0 35.872 4.133 4.133 0 0 0 4.13 40h30.906A4.971 4.971 0 0 0 40 35.035a6.018 6.018 0 0 0-6.011-6.012zm1.046 9.414H24.657a4.946 4.946 0 0 0 1.354-3.402 5.997 5.997 0 0 0-1.972-4.45h9.95a4.454 4.454 0 0 1 4.448 4.45 3.407 3.407 0 0 1-3.402 3.402z"/><path d="M14.537 29.252a.787.787 0 0 0-.553-.229.787.787 0 0 0-.552.23.787.787 0 0 0-.229.552.787.787 0 0 0 .781.781.787.787 0 0 0 .553-.229.787.787 0 0 0 .229-.552.787.787 0 0 0-.23-.553z"/></symbol><symbol id="sprite-inst" viewBox="0 0 15 15"><path d="M14.985 4.41c-.035-.797-.164-1.345-.348-1.82a3.658 3.658 0 0 0-.868-1.33 3.691 3.691 0 0 0-1.327-.864c-.478-.185-1.023-.314-1.82-.35C9.82.01 9.564 0 7.528 0 5.49 0 5.236.009 4.436.044c-.797.035-1.345.164-1.82.349a3.66 3.66 0 0 0-1.33.867c-.38.375-.676.83-.864 1.327-.185.478-.314 1.023-.349 1.82C.035 5.21.026 5.465.026 7.501c0 2.037.01 2.292.044 3.092.035.797.164 1.345.35 1.82.19.504.485.955.866 1.33.375.38.83.677 1.328.864.477.185 1.022.314 1.82.349.8.035 1.054.044 3.09.044 2.037 0 2.292-.009 3.092-.044.797-.035 1.345-.164 1.82-.349a3.836 3.836 0 0 0 2.195-2.194c.184-.478.313-1.023.348-1.82.036-.8.044-1.055.044-3.092 0-2.036-.003-2.291-.038-3.091zm-1.35 6.124c-.033.733-.156 1.128-.258 1.392a2.488 2.488 0 0 1-1.425 1.424c-.263.103-.662.226-1.391.258-.792.035-1.029.044-3.03.044-2.002 0-2.242-.009-3.03-.044-.733-.032-1.128-.155-1.392-.258a2.308 2.308 0 0 1-.861-.56 2.332 2.332 0 0 1-.56-.86c-.103-.265-.226-.663-.258-1.393-.035-.79-.044-1.028-.044-3.03 0-2.001.009-2.241.044-3.03.032-.732.155-1.128.258-1.391.12-.326.31-.622.562-.862.244-.25.537-.44.862-.56.264-.102.662-.225 1.392-.257.791-.036 1.028-.044 3.03-.044 2.004 0 2.241.008 3.03.044.732.032 1.128.155 1.392.257.325.12.62.311.86.56.25.243.44.536.56.862.103.263.226.662.258 1.391.036.792.044 1.029.044 3.03 0 2.002-.008 2.236-.044 3.027z"/><path d="M7.528 3.648a3.854 3.854 0 0 0 0 7.707 3.854 3.854 0 0 0 0-7.707zm0 6.353a2.5 2.5 0 1 1 0-5 2.5 2.5 0 0 1 0 5zm4.905-6.505a.9.9 0 1 1-1.8 0 .9.9 0 0 1 1.8 0z"/></symbol><symbol id="sprite-local" viewBox="0 0 16 20"><path d="M10.0001 0C6.00613 0 2.75684 3.2493 2.75684 7.2432C2.75684 12.1998 9.23883 19.4763 9.5148 19.7836C9.77402 20.0723 10.2266 20.0718 10.4854 19.7836C10.7613 19.4763 17.2433 12.1998 17.2433 7.2432C17.2432 3.2493 13.994 0 10.0001 0ZM10.0001 10.8875C7.99062 10.8875 6.35586 9.25266 6.35586 7.2432C6.35586 5.23375 7.99066 3.59898 10.0001 3.59898C12.0095 3.59898 13.6443 5.23379 13.6443 7.24324C13.6443 9.2527 12.0095 10.8875 10.0001 10.8875Z"/></symbol><symbol id="sprite-phone" viewBox="0 0 18 18"><path d="M12.937 18C12.356 18 11.7799 17.8973 11.2165 17.6926C8.73465 16.791 6.43096 15.3226 4.55439 13.4461C2.67783 11.5696 1.20941 9.26582 0.307867 6.78396C0.0181558 5.98637 -0.0673407 5.16305 0.0538379 4.33677C0.167353 3.5628 0.467153 2.81144 0.920861 2.16388C1.37657 1.51348 1.98412 0.972523 2.67779 0.599495C3.41752 0.201718 4.22492 0 5.07764 0C5.34284 0 5.57205 0.185301 5.62763 0.444603L6.51051 4.56471C6.55048 4.75128 6.49314 4.9454 6.35825 5.08033L4.84966 6.58889C6.27279 9.41836 8.58204 11.7276 11.4115 13.1507L12.9201 11.6421C13.055 11.5073 13.2491 11.45 13.4357 11.4899L17.5558 12.3728C17.8151 12.4283 18.0004 12.6576 18.0004 12.9228C18.0004 13.7755 17.7987 14.5829 17.4009 15.3226C17.0278 16.0163 16.4869 16.6239 15.8365 17.0796C15.189 17.5333 14.4376 17.8331 13.6636 17.9466C13.4211 17.9822 13.1786 18 12.937 18ZM4.62822 1.14956C3.50344 1.27373 2.50511 1.86328 1.84216 2.80947C1.09667 3.87343 0.92283 5.18206 1.36522 6.3999C3.09849 11.1713 6.82915 14.902 11.6006 16.6353C12.8184 17.0776 14.127 16.9038 15.191 16.1583C16.1372 15.4954 16.7267 14.497 16.8509 13.3723L13.4992 12.654L11.9237 14.2295C11.7561 14.3972 11.5013 14.4417 11.2868 14.3409C7.94043 12.7688 5.23168 10.06 3.65956 6.71365C3.55877 6.4991 3.60328 6.24437 3.77093 6.07675L5.34643 4.50126L4.62822 1.14956Z"/><path d="M17.4375 9.56211C17.1269 9.56211 16.875 9.31026 16.875 8.99963C16.875 4.65752 13.3425 1.12495 9.00034 1.12495C8.68971 1.12495 8.43787 0.873105 8.43787 0.562477C8.43787 0.251849 8.68971 0 9.00034 0C11.4043 0 13.6643 0.936102 15.3641 2.63591C17.0639 4.33571 18 6.59571 18 8.99963C18 9.31026 17.7482 9.56211 17.4375 9.56211Z"/><path d="M15.1876 9.56196C14.877 9.56196 14.6251 9.31011 14.6251 8.99948C14.6251 5.89798 12.1018 3.37471 9.00034 3.37471C8.68971 3.37471 8.43787 3.12286 8.43787 2.81223C8.43787 2.5016 8.68971 2.24976 9.00034 2.24976C12.7221 2.24976 15.7501 5.27768 15.7501 8.99948C15.7501 9.31011 15.4983 9.56196 15.1876 9.56196Z"/><path d="M12.9377 9.56205C12.6271 9.56205 12.3752 9.3102 12.3752 8.99957C12.3752 7.13865 10.8613 5.62471 9.00034 5.62471C8.68971 5.62471 8.43787 5.37286 8.43787 5.06223C8.43787 4.75161 8.68971 4.49976 9.00034 4.49976C11.4816 4.49976 13.5002 6.51835 13.5002 8.99957C13.5002 9.3102 13.2483 9.56205 12.9377 9.56205Z"/></symbol><symbol id="sprite-prg1" viewBox="0 0 60 60"><path d="M9.871 28.911h4.873a.878.878 0 1 0 0-1.757H9.871a.878.878 0 1 0 0 1.757zm0 3.846h4.873a.878.878 0 1 0 0-1.757H9.871a.878.878 0 1 0 0 1.757zm4.579 2.967c0 .485.393.879.878.879h5.516a.878.878 0 1 0 0-1.757h-5.516a.878.878 0 0 0-.878.878zm-4.579.879h1.465a.878.878 0 1 0 0-1.757H9.871a.878.878 0 1 0 0 1.757zm0 3.909h13.136a.878.878 0 1 0 0-1.757H9.871a.878.878 0 1 0 0 1.757z"/><path d="M52.338 39.002a19.646 19.646 0 0 0 5.652-6.858 19.276 19.276 0 0 0 2.006-8.985c-.09-4.987-2.042-9.689-5.497-13.238a.878.878 0 1 0-1.259 1.225c3.142 3.228 4.918 7.506 5 12.045a17.536 17.536 0 0 1-1.825 8.174 17.879 17.879 0 0 1-5.144 6.24 2.47 2.47 0 0 0-.963 1.736c-.154 1.72.811 3.283 1.783 4.394-2.074-.336-3.735-1.124-4.95-2.351a2.49 2.49 0 0 0-2.355-.664c-1.578.39-3.21.56-4.85.507-4.604-.15-8.915-2.071-12.14-5.41-3.223-3.338-4.995-7.714-4.989-12.323a17.617 17.617 0 0 1 5.084-12.397 17.613 17.613 0 0 1 12.287-5.293A17.704 17.704 0 0 1 50.23 8.669a.878.878 0 0 0 .96-1.471c-3.276-2.137-7.094-3.224-11.046-3.15a19.36 19.36 0 0 0-13.506 5.817 19.513 19.513 0 0 0-3.487 4.84 19.63 19.63 0 0 0-3.295-.343c-5.23-.096-10.172 1.83-13.913 5.433-3.736 3.6-5.846 8.458-5.94 13.68a19.638 19.638 0 0 0 .463 4.614.879.879 0 0 0 1.715-.383 17.842 17.842 0 0 1-.421-4.2c.085-4.752 2.004-9.172 5.402-12.445 3.403-3.279 7.9-5.032 12.66-4.942.874.016 1.736.098 2.584.239a19.456 19.456 0 0 0-1.356 7.134c-.007 5.067 1.94 9.878 5.483 13.546a19.42 19.42 0 0 0 8.54 5.179 17.884 17.884 0 0 1-2.87 3.915c-3.224 3.339-7.536 5.26-12.14 5.41a17.785 17.785 0 0 1-4.85-.508 2.491 2.491 0 0 0-2.355.664c-1.215 1.227-2.875 2.015-4.95 2.352.972-1.111 1.937-2.674 1.783-4.395a2.47 2.47 0 0 0-.963-1.735 17.848 17.848 0 0 1-5.31-6.586.879.879 0 0 0-1.591.745 19.61 19.61 0 0 0 5.834 7.237c.16.123.263.304.28.496.06.678-.145 2.092-2.208 3.942a1.247 1.247 0 0 0-.321 1.428 1.28 1.28 0 0 0 1.249.773c3.16-.205 5.665-1.222 7.445-3.02a.715.715 0 0 1 .686-.195c1.734.428 3.527.616 5.328.557 5.063-.164 9.803-2.275 13.347-5.945a19.63 19.63 0 0 0 3.369-4.71 19.559 19.559 0 0 0 8.371-.217.716.716 0 0 1 .686.195c1.78 1.799 4.286 2.815 7.446 3.02a1.277 1.277 0 0 0 1.248-.772 1.247 1.247 0 0 0-.32-1.428c-2.064-1.85-2.27-3.264-2.21-3.942a.71.71 0 0 1 .281-.496z"/><path d="M44.099 16.355v13.351a.878.878 0 0 0 1.757 0V16.355a.878.878 0 1 0-1.757 0zm-3.88 14.23a.878.878 0 0 0 .878-.879V16.355a.878.878 0 1 0-1.757 0v5.568h-7.482v-5.568a.878.878 0 1 0-1.757 0v13.351a.878.878 0 0 0 1.757 0V23.68h7.482v6.026a.88.88 0 0 0 .879.879zm8.963.097a.888.888 0 1 0 0-1.777.888.888 0 0 0 0 1.777zm0-3.51a.878.878 0 0 0 .879-.88v-9.937a.878.878 0 1 0-1.757 0v9.938c0 .485.393.878.878.878z"/></symbol><symbol id="sprite-prg2" viewBox="0 0 60 60"><path d="m59.987 55.766-3.515-19.383a.88.88 0 1 0-1.733.315l1.486 8.195-11.459-13.31 7.707-1.72 1.142.635.495 2.732a.88.88 0 0 0 1.733-.314l-.57-3.142a.88.88 0 0 0-.438-.612l-1.798-1.001-5.682-3.163-4.385-2.44v-.002a.887.887 0 0 0-.105-.048.885.885 0 0 0-.109-.035.297.297 0 0 0-.043-.008.509.509 0 0 0-.068-.012c-.015-.002-.03-.002-.046-.003a.869.869 0 0 0-.067-.003l-.047.002a.904.904 0 0 0-.284.067l-.046.02-.02.01-2.012 1.048c1.496-2.79 2.253-5.493 2.253-8.08 0-6.792-5.527-12.318-12.32-12.318-6.792 0-12.318 5.526-12.318 12.319 0 2.61.77 5.341 2.296 8.16l-2.168-1.13-.02-.008a.865.865 0 0 0-.329-.087.871.871 0 0 0-.113 0l-.049.003-.065.011c-.015.003-.03.005-.046.01-.024.005-.047.014-.071.022-.012.004-.025.007-.037.012a.88.88 0 0 0-.104.049h-.001L5.167 29.162a.88.88 0 0 0-.439.612L1.387 48.2a.88.88 0 0 0 1.733.314l1.002-5.528 11.398-6.025-.917 11.835-12.557 5.639.442-2.438a.88.88 0 1 0-1.733-.314l-.74 4.083a.88.88 0 0 0 1.226.96l14.2-6.375 14.193 6.373h.001l.005.003.024.009a.849.849 0 0 0 .079.028l.025.008.033.008a.88.88 0 0 0 .055.01l.027.005a1.256 1.256 0 0 0 .106.008h.017a.886.886 0 0 0 .107-.007l.013-.001.02-.005a.84.84 0 0 0 .082-.017l.023-.006h.002c.003 0 .005-.002.008-.003a.877.877 0 0 0 .1-.038l14.2-6.375 14.199 6.375c.013.007.027.011.041.016l.042.017c.018.006.037.01.056.015l.035.01.068.01.024.004a.891.891 0 0 0 .377-.042l.008-.002a.831.831 0 0 0 .08-.033c.009-.003.015-.009.023-.013a.838.838 0 0 0 .127-.078l.022-.014c.015-.012.029-.026.043-.039l.035-.031a.842.842 0 0 0 .074-.084c.004-.005.01-.01.013-.016a.872.872 0 0 0 .07-.112c.006-.01.01-.022.016-.033a.89.89 0 0 0 .036-.088c.006-.015.01-.03.014-.045a.903.903 0 0 0 .035-.223V55.9a.821.821 0 0 0-.012-.135zm-15.48-30.337-.902.21-.058-.745.96.535zm-1.92 9.87-3.678-2.872a.881.881 0 0 0-.894-.113l-7.13 3.103v-.965a41.374 41.374 0 0 0 3.194-2.925l7.945-3.49.562 7.262zm-.82-10.575.113 1.452-4.964 2.18c.493-.61.953-1.218 1.38-1.822l3.471-1.81zm-23.533 0 3.65 1.903a36.82 36.82 0 0 0 1.779 2.296 41.92 41.92 0 0 0 1.667 1.873l-7.483-1.07.387-5.002zm-2.553 10.16L4.52 40.783l.544-2.997.014-.078 10.825-5.704-.223 2.88zm.384-4.956-10.586 5.58.908-5.01 10.068-5.604-.253 3.267-.137 1.767zm.302 18.908L17.2 38.07l10.402 15.811-11.236-5.045zm12.753-3.394-5.425-8.55 5.425.65v7.9zm0-9.674-7.058-.845a.882.882 0 0 0-.848 1.346l7.906 12.46v4.254l-11.698-17.78.289-3.718 9.716 1.39a38.55 38.55 0 0 0 1.693 1.487v1.406zm.937-2.92C27.833 30.972 19.5 23.415 19.5 15.515c0-5.822 4.737-10.558 10.558-10.558 5.822 0 10.558 4.736 10.558 10.558 0 7.9-8.334 15.457-10.558 17.333zm.824 21.714v-3.909l2.633 2.727-2.633 1.182zm4.341-1.949-4.34-4.495V37.339l7.355-3.201 4.533 3.539.865 11.16-8.413 3.776zm8.52-25.197 3.053-.714 2.166 1.205 1.198.668-6.22 1.388-.197-2.547zm1.656 21.38-.687-8.877 11.313 13.649-10.626-4.772zm-.923-11.92-.24-3.091-.01-.13 12.62 14.658.81 4.462-13.18-15.9z"/><path d="M30.057 10.072a.88.88 0 1 0 0 1.762 3.686 3.686 0 0 1 3.681 3.681 3.686 3.686 0 0 1-3.681 3.682 3.686 3.686 0 0 1-3.682-3.682 3.66 3.66 0 0 1 1.056-2.58.88.88 0 1 0-1.257-1.234 5.412 5.412 0 0 0-1.56 3.814 5.449 5.449 0 0 0 5.443 5.443 5.449 5.449 0 0 0 5.443-5.443 5.45 5.45 0 0 0-5.443-5.443z"/></symbol><symbol id="sprite-prg3" viewBox="0 0 55 55"><path d="M53.832 20.612H3.397c-.633 0-1.147.514-1.147 1.147v27.51A5.738 5.738 0 0 0 7.982 55h41.265a5.738 5.738 0 0 0 5.731-5.731v-27.51c0-.633-.513-1.147-1.146-1.147zM52.686 49.27a3.443 3.443 0 0 1-3.439 3.439H7.982a3.443 3.443 0 0 1-3.439-3.44V22.906h48.143V49.27z"/><path d="m54.94 10.005-1.95-7.403c-.45-1.8-2.288-2.93-4.111-2.517L2.694 11.043A3.412 3.412 0 0 0 .53 12.595a3.4 3.4 0 0 0-.404 2.637l2.16 8.537a1.143 1.143 0 0 0 1.393.83c.613-.154.984-.777.828-1.392l-.126-.497 49.704-11.293a1.147 1.147 0 0 0 .855-1.412zM3.82 20.486l-1.472-5.812a1.151 1.151 0 0 1 .135-.88 1.16 1.16 0 0 1 .731-.52L49.4 2.318c.083-.02.168-.03.25-.03.514 0 .988.353 1.119.883l1.653 6.27L3.819 20.486z"/><path d="M13.08 20.732a1.156 1.156 0 0 0-1.54.513l-4.586 9.17a1.148 1.148 0 0 0 2.054 1.025l4.586-9.17a1.149 1.149 0 0 0-.514-1.538zm11.46 0a1.152 1.152 0 0 0-1.538.513l-4.585 9.17a1.148 1.148 0 0 0 1.027 1.66c.42 0 .826-.231 1.025-.635l4.585-9.17a1.149 1.149 0 0 0-.513-1.538zm11.463 0a1.154 1.154 0 0 0-1.538.513l-4.585 9.17a1.148 1.148 0 0 0 1.027 1.66c.42 0 .825-.231 1.024-.635l4.586-9.17a1.149 1.149 0 0 0-.514-1.538zm11.462 0a1.152 1.152 0 0 0-1.538.513l-4.585 9.17a1.148 1.148 0 0 0 1.027 1.66c.42 0 .825-.231 1.025-.635l4.585-9.17a1.149 1.149 0 0 0-.514-1.538z"/><path d="M53.832 29.783H3.397a1.147 1.147 0 0 0 0 2.292h50.435a1.145 1.145 0 1 0 0-2.292zM14.481 18.61l-7.896-7.895a1.147 1.147 0 0 0-1.62 1.62l7.895 7.898c.225.222.518.335.811.335a1.147 1.147 0 0 0 .81-1.958zm11.214-2.547-7.902-7.896a1.147 1.147 0 0 0-1.62 1.621l7.9 7.896a1.152 1.152 0 0 0 1.623 0 1.147 1.147 0 0 0 0-1.621zm11.207-2.547L29.013 5.62a1.147 1.147 0 0 0-1.62 1.621l7.888 7.898a1.152 1.152 0 0 0 1.62 0 1.147 1.147 0 0 0 0-1.62zm11.2-2.545-7.89-7.897a1.147 1.147 0 0 0-1.621 1.62l7.89 7.898a1.152 1.152 0 0 0 1.622 0 1.147 1.147 0 0 0 0-1.62z"/></symbol><symbol id="sprite-skype" viewBox="0 0 26 26"><path d="M25.293 15.604c.182-.859.274-1.733.274-2.604 0-3.357-1.307-6.513-3.68-8.886A12.485 12.485 0 0 0 13 .433c-.869 0-1.744.092-2.604.274A7.288 7.288 0 0 0 7.269 0C3.261 0 0 3.26 0 7.27c0 1.079.244 2.153.707 3.126A12.596 12.596 0 0 0 .433 13c0 3.357 1.308 6.512 3.681 8.886A12.484 12.484 0 0 0 13 25.566c.87 0 1.744-.091 2.604-.273a7.29 7.29 0 0 0 3.127.707A7.276 7.276 0 0 0 26 18.731c0-1.08-.244-2.154-.707-3.127zm-6.562 8.873a5.675 5.675 0 0 1-2.673-.66.762.762 0 0 0-.529-.068c-.834.195-1.685.294-2.529.294C6.91 24.043 1.957 19.09 1.957 13c0-.846.099-1.697.294-2.529a.763.763 0 0 0-.067-.529 5.678 5.678 0 0 1-.66-2.673 5.752 5.752 0 0 1 5.745-5.746c.943 0 1.842.222 2.673.66.162.086.35.11.529.068A11.11 11.11 0 0 1 13 1.956c6.089 0 11.043 4.955 11.043 11.044 0 .846-.1 1.697-.295 2.53a.761.761 0 0 0 .068.528c.438.832.66 1.73.66 2.673a5.752 5.752 0 0 1-5.746 5.746z"/><path d="M13 7.111c2.247 0 4.145 1.174 4.145 2.564a.762.762 0 1 0 1.524 0c0-1.15-.63-2.208-1.772-2.982C15.845 5.98 14.46 5.587 13 5.587c-1.462 0-2.846.393-3.897 1.106C7.96 7.467 7.33 8.526 7.33 9.675c0 1.148.63 2.207 1.772 2.981 1.051.713 2.435 1.106 3.897 1.106 2.247 0 4.145 1.173 4.145 2.563 0 1.39-1.898 2.564-4.145 2.564s-4.146-1.174-4.146-2.564a.762.762 0 1 0-1.523 0c0 1.149.63 2.208 1.772 2.982 1.051.713 2.435 1.105 3.897 1.105 1.461 0 2.845-.392 3.897-1.105 1.142-.774 1.772-1.833 1.772-2.982 0-1.149-.63-2.207-1.772-2.982-1.052-.712-2.436-1.105-3.897-1.105-2.247 0-4.146-1.174-4.146-2.563 0-1.39 1.899-2.564 4.146-2.564z"/></symbol><symbol id="sprite-smart" viewBox="0 0 40 40"><path d="M29.684 4.448a.787.787 0 0 0-.552-.23.786.786 0 0 0-.781.782c0 .205.083.407.229.552a.787.787 0 0 0 .552.23.787.787 0 0 0 .552-.23.787.787 0 0 0 .23-.552.787.787 0 0 0-.23-.552zm-3.892-.23H2.344A2.346 2.346 0 0 0 0 6.564v20a2.346 2.346 0 0 0 2.344 2.343h2.11a.781.781 0 1 0 0-1.562h-2.11a.782.782 0 0 1-.781-.782v-20c0-.43.35-.78.78-.78h23.449a.781.781 0 1 0 0-1.563zM8.467 27.574a.785.785 0 0 0-.552-.23.787.787 0 0 0-.553.23.787.787 0 0 0-.228.552c0 .206.083.407.228.552a.787.787 0 0 0 .553.23.787.787 0 0 0 .552-.23.787.787 0 0 0 .23-.552.787.787 0 0 0-.23-.552zM37.657 4.22h-5.6a.781.781 0 1 0 0 1.562h5.6c.43 0 .78.35.78.782v20c0 .43-.35.78-.78.78H10.963a.781.781 0 1 0 0 1.563h5.872v2.545l-3.613 2.35a1.07 1.07 0 0 0-.446 1.21c.137.46.552.77 1.033.77h12.38c.481 0 .896-.31 1.033-.77a1.07 1.07 0 0 0-.446-1.21l-3.613-2.35v-2.545h14.492A2.346 2.346 0 0 0 40 26.563v-20a2.346 2.346 0 0 0-2.344-2.344zm-13.103 30h-9.107l2.596-1.69a.781.781 0 0 0 .355-.654v-2.969h3.204v2.969c0 .264.133.51.355.655l2.596 1.689z"/><path d="m23.698 19.69-2.463-5.625a.781.781 0 0 0-1.44.02l-2.285 5.624a.781.781 0 1 0 1.448.589l1.588-3.91 1.72 3.929a.781.781 0 0 0 1.432-.627zm3.98-1.718h.047a2.19 2.19 0 0 0 2.188-2.187 2.19 2.19 0 0 0-2.188-2.188h-1.933a.781.781 0 0 0-.781.782v5.625a.781.781 0 1 0 1.562 0v-.927l1.485 1.485a.78.78 0 0 0 1.105 0 .781.781 0 0 0 0-1.105l-1.485-1.485zm-1.105-2.812h1.153a.626.626 0 0 1 0 1.25h-1.153v-1.25zM6.51 16.41h-.103a.626.626 0 0 1 0-1.25h.708a.781.781 0 1 0 0-1.563h-.708a2.19 2.19 0 0 0-2.187 2.188 2.19 2.19 0 0 0 2.187 2.187h.103a.626.626 0 0 1 0 1.25H5a.781.781 0 0 0 0 1.563h1.509a2.19 2.19 0 0 0 2.187-2.188A2.19 2.19 0 0 0 6.51 16.41zm8.908-2.752a.781.781 0 0 0-.85.165l-1.773 1.75-1.773-1.75a.781.781 0 0 0-1.33.556v5.625a.781.781 0 0 0 1.563 0v-3.757l.991.98c.305.3.794.3 1.098 0l.992-.98v3.757a.781.781 0 1 0 1.562 0v-5.625a.78.78 0 0 0-.48-.721zm19.453-.06h-2.813a.781.781 0 0 0 0 1.562h.625v4.764a.781.781 0 1 0 1.563 0V15.16h.625a.781.781 0 0 0 0-1.563z"/></symbol><symbol fill="none" id="sprite-smile1" viewBox="0 0 15 15"><path d="M7.5 15a7.5 7.5 0 1 0 0-15 7.5 7.5 0 0 0 0 15z" fill="#FFD93B"/><path d="M7.5 12.32a4.795 4.795 0 0 1-4.647-3.61.312.312 0 1 1 .605-.156 4.17 4.17 0 0 0 8.083 0 .312.312 0 1 1 .606.155A4.794 4.794 0 0 1 7.5 12.321z" fill="#3E4347"/><path d="M15 7.5a7.5 7.5 0 0 1-13.338 4.709A7.46 7.46 0 0 0 6.37 13.87a7.5 7.5 0 0 0 7.5-7.5 7.46 7.46 0 0 0-1.661-4.708A7.492 7.492 0 0 1 15 7.5z" fill="#F4C534"/><path d="M5.078 7.82c.635 0 1.15-.611 1.15-1.366 0-.754-.515-1.366-1.15-1.366-.635 0-1.15.612-1.15 1.366 0 .755.515 1.366 1.15 1.366z" fill="#3E4347"/><path d="M5.596 6.16c-.09.07-.236.036-.33-.078-.095-.115-.1-.268-.01-.338.09-.074.237-.04.33.075.095.118.096.268.01.342z" fill="#5A5F63"/><path d="M9.923 7.82c.635 0 1.15-.611 1.15-1.366 0-.754-.515-1.366-1.15-1.366-.634 0-1.149.612-1.149 1.366 0 .755.515 1.366 1.15 1.366z" fill="#3E4347"/><path d="M10.44 6.16c-.089.07-.236.036-.33-.078-.094-.115-.099-.268-.01-.338.09-.074.237-.04.331.075.095.118.096.268.01.342z" fill="#5A5F63"/></symbol><symbol fill="none" id="sprite-smile2" viewBox="0 0 15 15"><g clip-path="url(#a)"><path d="M7.5 15a7.5 7.5 0 1 0 0-15 7.5 7.5 0 0 0 0 15z" fill="#FFD93B"/><path d="M7.5 12.438a4.619 4.619 0 0 1-4.405-3.212.352.352 0 0 1 .669-.216A3.918 3.918 0 0 0 7.5 11.735a3.918 3.918 0 0 0 3.736-2.725.35.35 0 1 1 .67.216A4.619 4.619 0 0 1 7.5 12.438z" fill="#3E4347"/><path d="M15 7.5a7.5 7.5 0 0 1-13.338 4.709A7.46 7.46 0 0 0 6.37 13.87a7.5 7.5 0 0 0 7.5-7.5 7.46 7.46 0 0 0-1.661-4.708A7.492 7.492 0 0 1 15 7.5z" fill="#F4C534"/><path d="M6.253 6.275c-.352-.481-.988-.8-1.713-.8-.728.002-1.363.322-1.716.803a1.715 1.715 0 0 1 3.43-.003zm5.923 0c-.352-.481-.988-.8-1.713-.8-.727.002-1.363.322-1.716.803a1.715 1.715 0 0 1 3.43-.003z" fill="#3E4347"/></g><defs><clipPath id="a"><path fill="#fff" d="M0 0h15v15H0z"/></clipPath></defs></symbol><symbol fill="none" id="sprite-smile3" viewBox="0 0 15 15"><g clip-path="url(#a)"><path d="M7.5 15a7.5 7.5 0 1 0 0-15 7.5 7.5 0 0 0 0 15z" fill="#FFD93B"/><path d="M15 7.5a7.5 7.5 0 0 1-13.338 4.709A7.46 7.46 0 0 0 6.37 13.87a7.5 7.5 0 0 0 7.5-7.5 7.46 7.46 0 0 0-1.661-4.708A7.492 7.492 0 0 1 15 7.5z" fill="#F4C534"/><path d="M6.772 7.764c-.918-.775-2.987-.51-3.558.47-.355-.911.365-2.144 1.484-2.294 1.268-.166 2.13.886 2.074 1.824zm1.457 0c.917-.775 2.986-.51 3.557.47.356-.911-.365-2.144-1.484-2.294-1.268-.166-2.13.886-2.073 1.824zm4.377 1.766c-.786 2.424-2.917 4.248-5.104 4.256-2.19-.008-4.322-1.835-5.108-4.256-.095-.305.29-.588.662-.477 3.095.934 5.798.93 8.894 0 .367-.11.751.17.656.477z" fill="#3E4347"/><path d="M10.656 10.614c.065-.42.13-.845.193-1.266-2.26.533-4.35.538-6.605.02l.214 1.243c.023.13.15.222.306.249 1.864.32 3.72.319 5.584.008.159-.026.288-.119.308-.254z" fill="#fff"/><path d="M7.164 11.536c.275.104.591.071.86-.046.577-.25 1.317-.16 1.48.623l.004.02c.151.858-.643 1.622-1.577 1.651-.04.004-.082.002-.123.002a4.007 4.007 0 0 1-.699-.062c-.457-.083-.863-.36-1.073-.744a2.06 2.06 0 0 1-.243-.744c-.1-.805.626-.986 1.371-.7z" fill="#E24B4B"/><path opacity=".2" d="M9.06 12.154c-.062.075-.146.086-.235.008a.353.353 0 0 1-.09-.105.359.359 0 0 0-.222-.16c-.042-.014-.08-.04-.094-.089-.011-.041.018-.101.104-.148.365-.196.753.217.537.494z" fill="#fff"/><path d="M11.682 4.337c-.29-.616-1.57-2.078-2.761-1.412.989-1.492 2.563-.824 2.76 1.412zm-8.364 0C3.61 3.72 4.89 2.259 6.08 2.925 5.09 1.433 3.517 2.1 3.32 4.337z" fill="#3E4347"/><path d="M14.537 12.027c-.148-.512-1.598-2.068-1.598-2.068s-.404 2.087-.257 2.6a.965.965 0 0 0 1.854-.532zm-14.073 0C.61 11.515 2.06 9.959 2.06 9.959s.404 2.087.257 2.6a.964.964 0 1 1-1.854-.532z" fill="#65B1EF"/></g><defs><clipPath id="a"><path fill="#fff" d="M0 0h15v15H0z"/></clipPath></defs></symbol><symbol fill="none" id="sprite-smile4" viewBox="0 0 15 15"><g clip-path="url(#a)"><path d="M7.5 15a7.5 7.5 0 1 0 0-15 7.5 7.5 0 0 0 0 15z" fill="#FFD93B"/><path d="M12.216 9.902a5.11 5.11 0 0 1-9.43 0 .541.541 0 0 1 .53-.757 66.07 66.07 0 0 0 8.366 0 .545.545 0 0 1 .534.757z" fill="#3E4347"/><path d="M15 7.5a7.5 7.5 0 0 1-13.338 4.709A7.46 7.46 0 0 0 6.37 13.87a7.5 7.5 0 0 0 7.5-7.5 7.46 7.46 0 0 0-1.661-4.708A7.492 7.492 0 0 1 15 7.5z" fill="#F4C534"/><path d="M4.408 8.161a2.725 2.725 0 0 0 2.724-2.726 2.725 2.725 0 1 0-2.724 2.726z" fill="#fff"/><path d="M6.358 5.262c0 .764-.619 1.383-1.383 1.379a1.377 1.377 0 1 1 .005-2.757c.76 0 1.378.619 1.378 1.378z" fill="#3E4347"/><path d="M5.772 5c-.094.099-.29.052-.436-.098-.145-.145-.192-.338-.098-.436.098-.094.29-.047.436.098.15.146.197.343.098.436zm4.82 3.161a2.725 2.725 0 0 0 2.723-2.726 2.725 2.725 0 1 0-2.723 2.726z" fill="#fff"/><path d="M8.507 5.262c0 .764.619 1.383 1.383 1.379a1.377 1.377 0 1 0-.005-2.757 1.38 1.38 0 0 0-1.378 1.378z" fill="#3E4347"/><path d="M9.093 5c.094.099.29.052.436-.098.145-.145.192-.338.098-.436-.098-.094-.29-.047-.436.098-.15.146-.197.343-.098.436zM3.316 9.145c-.033-.001-.063.004-.094.007.87 1.179 2.458 1.244 4.278 1.244 1.82 0 3.408-.065 4.278-1.244-.032-.003-.063-.008-.096-.007a66.078 66.078 0 0 1-8.366 0z" fill="#fff"/><path d="M7.499 13.039a5.09 5.09 0 0 0 2.179-.488 2.17 2.17 0 0 0-.616-1.406 1.075 1.075 0 0 0-1.117-.255c-.35.125-.731.19-1.144.194a1.48 1.48 0 0 0-1.443 1.203c-.016.087-.02.178-.025.27.658.307 1.39.482 2.166.482z" fill="#E24B4B"/></g><defs><clipPath id="a"><path fill="#fff" d="M0 0h15v15H0z"/></clipPath></defs></symbol><symbol fill="none" id="sprite-spain" viewBox="0 0 35 35"><path d="M0 26.344a2.621 2.621 0 0 0 2.621 2.621H32.38a2.621 2.621 0 0 0 2.62-2.62v-2.207H0v2.206zm32.379-20.31H2.62A2.621 2.621 0 0 0 0 8.655v2.207h35V8.655a2.621 2.621 0 0 0-2.621-2.62z" fill="#C8414B"/><path d="M35 10.862H0v13.276h35V10.862z" fill="#FFD250"/><path d="m14.785 17.5.511-2.303a.34.34 0 0 0-.331-.413h-.36a.34.34 0 0 0-.332.413l.512 2.303z" fill="#C8414B"/><path d="M15.388 16.293h-1.207v5.129h1.207v-5.129z" fill="#F5F5F5"/><path d="M15.69 15.69h-1.811v.604h1.81v-.604z" fill="#FAB446"/><path d="M15.69 17.5h-3.018v.604h3.018V17.5zm0 2.413-1.81-.604v-.603l1.81.604v.603zM5.733 17.5l.511-2.303a.34.34 0 0 0-.331-.413h-.36a.34.34 0 0 0-.332.413l.512 2.303z" fill="#C8414B"/><path d="M7.845 15.69a.603.603 0 0 0-.604.603v3.922c0 .733.685 2.112 3.018 2.112 2.333 0 3.017-1.379 3.017-2.112v-3.922a.603.603 0 0 0-.604-.603H7.845z" fill="#F5F5F5"/><path d="M10.259 18.707H7.24v-2.414c0-.333.27-.603.604-.603h2.414v3.017zm0 0h3.017v1.509a1.509 1.509 0 1 1-3.017 0v-1.509z" fill="#C8414B"/><path d="M7.241 18.707h3.018v1.509a1.509 1.509 0 1 1-3.018 0v-1.509z" fill="#FAB446"/><path d="M9.655 21.416v-2.709h-.603v2.987c.224-.046.427-.145.603-.278zm-1.207.278v-2.987h-.603v2.709c.176.133.379.232.603.278z" fill="#C8414B"/><path d="M9.655 17.5h-1.81v.604h1.81V17.5z" fill="#FFB441"/><path d="M9.655 16.293h-1.81v.603h1.81v-.603z" fill="#FAB446"/><path d="M9.353 16.652H8.146v1.093h1.207v-1.093z" fill="#FAB446"/><path d="M6.336 16.293H5.129v5.129h1.207v-5.129z" fill="#F5F5F5"/><path d="M6.638 21.122h-1.81v.604h1.81v-.604zm0-5.432h-1.81v.604h1.81v-.604z" fill="#FAB446"/><path d="M6.94 21.725H4.526v.603H6.94v-.603z" fill="#5064AA"/><path d="M15.992 21.121h-1.81v.604h1.81v-.604z" fill="#FAB446"/><path d="M15.991 21.725h-2.413v.603h2.413v-.603z" fill="#5064AA"/><path d="M12.07 15.087H8.448v.603h3.62v-.603z" fill="#FAB446"/><path d="M10.56 13.275h-.603v1.81h.604v-1.81z" fill="#FFB441"/><path d="M9.655 14.181a.906.906 0 0 1 0-1.81.906.906 0 0 1 0 1.81zm0-1.206a.302.302 0 1 0 0 .603.302.302 0 0 0 0-.603z" fill="#F5F5F5"/><path d="M10.862 14.181a.906.906 0 0 1 0-1.81.906.906 0 0 1 0 1.81zm0-1.206a.302.302 0 1 0 0 .603.302.302 0 0 0 0-.603z" fill="#F5F5F5"/><path d="M12.069 14.785a.906.906 0 0 1 0-1.81.906.906 0 0 1 0 1.81zm0-1.207a.302.302 0 1 0 0 .604.302.302 0 0 0 0-.604zm-3.62 1.207a.906.906 0 0 1 0-1.81.906.906 0 0 1 0 1.81zm0-1.207a.302.302 0 1 0 0 .604.302.302 0 0 0 0-.604z" fill="#F5F5F5"/><path d="M12.07 19.914v.302a.302.302 0 0 1-.604 0v-.302h.603zm.602-.604h-1.81v.906a.906.906 0 0 0 1.81 0v-.905z" fill="#FAB446"/><path d="M11.767 18.103a.604.604 0 0 1-.603-.603v-.604a.603.603 0 0 1 1.207 0v.604c0 .333-.27.603-.604.603z" fill="#FFA0D2"/><path d="M10.259 19.611a.905.905 0 1 0 0-1.81.905.905 0 0 0 0 1.81z" fill="#5064AA"/><path d="M10.56 12.07h-.603v1.81h.604v-1.81z" fill="#FAB446"/><path d="m8.448 15.086-.603-.604.353-.353a2.914 2.914 0 0 1 4.12 0l.354.353-.603.604h-3.62z" fill="#C8414B"/><path d="M10.259 14.784a.302.302 0 1 0 0-.603.302.302 0 0 0 0 .603zm-1.208 0a.302.302 0 1 0 0-.603.302.302 0 0 0 0 .603zm2.414 0a.302.302 0 1 0 0-.603.302.302 0 0 0 0 .603z" fill="#FFD250"/><path d="M7.845 17.5H4.828v.604h3.017V17.5zm-3.017 2.414 1.81-.604v-.603l-1.81.604v.603z" fill="#C8414B"/></symbol><symbol id="sprite-tg" viewBox="0 0 12 12"><path d="m.208 5.598 2.934 1.463a.376.376 0 0 0 .356-.012L6.11 5.531l-1.581 1.4a.375.375 0 0 0-.126.282v3.412c0 .36.459.512.675.226l1.268-1.687 3.137 1.787c.22.126.502 0 .553-.252l1.957-9.75a.375.375 0 0 0-.505-.423L.239 4.913a.375.375 0 0 0-.03.685zm10.915-4.124-1.72 8.568L6.431 8.35a.376.376 0 0 0-.486.1l-.792 1.054V7.381l4.275-3.788c.339-.3-.05-.832-.437-.605L3.296 6.3 1.3 5.305l9.822-3.831z"/></symbol><symbol id="sprite-twitter" viewBox="0 0 24 24"><path d="M21.534 7.113A9.822 9.822 0 0 0 24 4.559v-.001c-.893.391-1.843.651-2.835.777a4.894 4.894 0 0 0 2.165-2.719 9.845 9.845 0 0 1-3.12 1.191 4.919 4.919 0 0 0-8.511 3.364c0 .39.033.765.114 1.122-4.09-.2-7.71-2.16-10.142-5.147a4.962 4.962 0 0 0-.674 2.487c0 1.704.877 3.214 2.186 4.089A4.863 4.863 0 0 1 .96 9.116v.054a4.943 4.943 0 0 0 3.942 4.835c-.401.11-.837.162-1.29.162-.315 0-.633-.018-.931-.084.637 1.948 2.447 3.381 4.597 3.428a9.89 9.89 0 0 1-6.101 2.098c-.403 0-.79-.018-1.177-.067a13.856 13.856 0 0 0 7.548 2.208c8.683 0 14.342-7.244 13.986-14.637z"/></symbol><symbol fill="none" id="sprite-uk" viewBox="0 0 35 35"><path d="M32.379 6.034H2.62A2.621 2.621 0 0 0 0 8.655v17.689a2.621 2.621 0 0 0 2.621 2.621H32.38A2.621 2.621 0 0 0 35 26.344V8.655a2.621 2.621 0 0 0-2.621-2.62z" fill="#41479B"/><path d="M34.964 8.222a2.622 2.622 0 0 0-2.585-2.188h-.682l-11.18 7.325V6.034h-6.034v7.325L3.303 6.034h-.682c-1.3 0-2.378.947-2.585 2.188l9.555 6.26H0v6.035h9.591l-9.555 6.26a2.622 2.622 0 0 0 2.585 2.188h.682l11.18-7.324v7.324h6.034v-7.324l11.18 7.324h.682c1.3 0 2.378-.946 2.585-2.188l-9.555-6.26H35v-6.035h-9.591l9.555-6.26z" fill="#F5F5F5"/><path d="M19.31 6.034h-3.62v9.655H0v3.621h15.69v9.655h3.62V19.31H35v-3.62H19.31V6.033z" fill="#FF4B55"/><path d="m1.695 28.796 12.754-8.28h-2.216L.63 28.049c.284.331.65.59 1.065.748zm21.984-8.28h-2.217l12.354 8.02c.345-.228.634-.534.84-.894l-10.977-7.125zM.277 7.485l10.782 6.999h2.217L1.058 6.552a2.632 2.632 0 0 0-.781.932zm22.457 6.999 11.623-7.545a2.625 2.625 0 0 0-1.073-.743l-12.767 8.288h2.217z" fill="#FF4B55"/></symbol><symbol id="sprite-viber" viewBox="0 0 12 12"><path d="M11.496 4.235c0-1.127-.442-2.19-1.244-2.991A4.205 4.205 0 0 0 7.26 0H4.75a4.206 4.206 0 0 0-2.99 1.244A4.206 4.206 0 0 0 .515 4.235v1.973c0 .873.266 1.712.77 2.428a4.25 4.25 0 0 0 1.738 1.437v1.133c0 .586.328.794.61.794.2 0 .4-.1.596-.294l1.262-1.263H7.26a4.2 4.2 0 0 0 2.991-1.244 4.205 4.205 0 0 0 1.244-2.991V4.235zM7.26 9.74H5.348a.351.351 0 0 0-.249.103l-1.365 1.365a.093.093 0 0 1-.005.006V9.839A.352.352 0 0 0 3.5 9.51a3.558 3.558 0 0 1-2.28-3.302V4.235c0-.939.368-1.825 1.038-2.494A3.507 3.507 0 0 1 4.75.703h2.51c.939 0 1.825.369 2.494 1.038a3.506 3.506 0 0 1 1.038 2.494v1.973A3.536 3.536 0 0 1 7.26 9.74z"/><path d="M6.94 5.75a.351.351 0 0 0-.497 0l-.284.284-1.1-1.1.284-.285a.352.352 0 0 0 0-.497L4.012 2.821a.351.351 0 0 0-.497 0l-.932.932a1.295 1.295 0 0 0 0 1.828l2.928 2.93c.244.243.569.377.915.377.346 0 .67-.134.914-.378l.932-.932a.352.352 0 0 0 0-.497L6.941 5.75zm-.097 2.263a.585.585 0 0 1-.417.172.585.585 0 0 1-.417-.172l-2.93-2.929a.59.59 0 0 1 0-.834l.684-.684.834.835-.284.284a.352.352 0 0 0 0 .497l1.598 1.597a.35.35 0 0 0 .497 0l.284-.283.834.834-.683.683zM6.09 1.556a.352.352 0 1 0 0 .703c.805 0 1.561.313 2.13.882s.882 1.325.882 2.13a.352.352 0 0 0 .703 0 3.69 3.69 0 0 0-1.088-2.627A3.691 3.691 0 0 0 6.09 1.556z"/><path d="M7.597 5.27a.352.352 0 0 0 .703 0 2.21 2.21 0 0 0-2.209-2.208.352.352 0 1 0 0 .703c.83 0 1.506.675 1.506 1.506z"/></symbol><symbol id="sprite-vk" viewBox="0 0 18 18"><path d="M9.109 14.625c2.604 0 1.675-1.649 1.876-2.123-.003-.354-.006-.694.006-.901.165.046.555.244 1.359 1.025 1.24 1.253 1.558 1.999 2.56 1.999h1.846c.585 0 .89-.242 1.042-.445.147-.197.291-.542.134-1.079-.412-1.293-2.813-3.526-2.963-3.761a2.07 2.07 0 0 1 .078-.131h-.002c.474-.627 2.283-3.337 2.55-4.422v-.006c.145-.495.013-.816-.124-.997-.205-.272-.532-.409-.974-.409h-1.846c-.618 0-1.086.311-1.323.879-.397 1.009-1.512 3.083-2.347 3.818a48.074 48.074 0 0 1 .005-2.425c.027-1.152.114-2.272-1.08-2.272H7.003c-.748 0-1.465.817-.689 1.788.678.85.244 1.324.39 3.684-.57-.611-1.584-2.262-2.301-4.372-.201-.57-.506-1.1-1.363-1.1H1.195C.447 3.376 0 3.785 0 4.468c0 1.535 3.397 10.158 9.109 10.158zM3.04 4.501c.163 0 .18 0 .3.342.734 2.163 2.381 5.362 3.584 5.362.904 0 .904-.926.904-1.275V6.154c-.05-.919-.385-1.377-.604-1.654l2.63.003c.002.013-.014 3.071.008 3.812 0 1.053.836 1.655 2.14.335 1.376-1.553 2.328-3.875 2.366-3.97.056-.134.105-.18.282-.18h1.854l-.002.007c-.169.787-1.835 3.297-2.392 4.076l-.025.037c-.245.401-.445.844.034 1.466.044.053.157.175.322.346.513.53 2.273 2.34 2.428 3.06-.103.017-.216.005-1.96.009-.37 0-.66-.555-1.768-1.673-.996-.969-1.643-1.365-2.232-1.365-1.143 0-1.06.928-1.049 2.05.004 1.216-.004.832.004.908-.066.027-.258.079-.756.079-4.759 0-7.858-7.553-7.977-8.997.041-.004.609-.002 1.91-.002z"/></symbol><symbol id="sprite-wapp" viewBox="0 0 12 12"><path fill-rule="evenodd" clip-rule="evenodd" d="M9.98 2.004A5.538 5.538 0 0 0 6.035.369 5.582 5.582 0 0 0 .461 5.943c0 .983.257 1.942.744 2.787l-.79 2.89 2.955-.776a5.569 5.569 0 0 0 2.664.679h.002a5.583 5.583 0 0 0 5.575-5.575 5.54 5.54 0 0 0-1.632-3.944zm-3.944 8.577h-.002a4.628 4.628 0 0 1-2.358-.646l-.17-.1-1.753.46.468-1.71-.11-.175a4.622 4.622 0 0 1-.708-2.466A4.64 4.64 0 0 1 6.038 1.31c1.238 0 2.4.483 3.276 1.358a4.606 4.606 0 0 1 1.355 3.279 4.64 4.64 0 0 1-4.633 4.633zm2.542-3.47a23.03 23.03 0 0 0-.952-.453c-.128-.047-.22-.07-.314.07-.092.139-.36.453-.44.545-.082.093-.163.105-.302.035-.14-.07-.589-.217-1.12-.691a4.202 4.202 0 0 1-.776-.965c-.08-.14 0-.208.062-.284.15-.187.301-.384.348-.477.046-.093.023-.174-.012-.244s-.313-.755-.43-1.034c-.112-.272-.227-.235-.313-.24a5.569 5.569 0 0 0-.267-.004.512.512 0 0 0-.371.174c-.128.14-.488.477-.488 1.162 0 .686.5 1.348.57 1.441.069.093.981 1.5 2.379 2.103.332.144.591.23.794.294.333.106.637.091.877.055.268-.04.824-.337.94-.662.116-.326.116-.604.082-.663-.035-.058-.128-.092-.267-.162z"/></symbol><symbol id="sprite-top" viewBox="0 0 22 22"><path d="M20.0328 8.84232L11.3246 0.134061C11.1458 -0.0446871 10.8552 -0.0446871 10.6765 0.134061L1.96825 8.84232C1.03142 9.77916 1.03142 11.3035 1.96825 12.2404C2.90509 13.1772 4.42948 13.1772 5.36632 12.2404L8.70844 8.89827V19.7084C8.70844 20.9716 9.73693 22 11.0001 22C12.2632 22 13.2917 20.9716 13.2917 19.7084V8.89822L16.6338 12.2403C17.5707 13.1772 19.095 13.1772 20.0319 12.2403C20.9687 11.3045 20.9687 9.77912 20.0328 8.84232Z"/></symbol></svg>
